HIERARCHY
ROOT root
{
	OFFSET 0.000000 0.000000 0.000000
	CHANNELS 6 Xposition Yposition Zposition Zrotation Yrotation Xrotation
	JOINT lhip
	{
		OFFSET 0.058581 -0.082280 -0.017664
		CHANNELS 3 Zrotation Yrotation Xrotation
		JOINT lknee
		{
			OFFSET 0.043451 -0.386469 0.008037
			CHANNELS 3 Zrotation Yrotation Xrotation
			JOINT lankle
			{
				OFFSET -0.014790 -0.426874 -0.037428
				CHANNELS 3 Zrotation Yrotation Xrotation
				JOINT ltoe
				{
					OFFSET 0.041054 -0.060286 0.122042
					CHANNELS 3 Zrotation Yrotation Xrotation
					End Site
					{
						OFFSET 0.000000 0.000000 0.000000
					}
				}
			}
		}
	}
	JOINT rhip
	{
		OFFSET -0.060310 -0.090513 -0.013543
		CHANNELS 3 Zrotation Yrotation Xrotation
		JOINT rknee
		{
			OFFSET -0.043257 -0.383688 -0.004843
			CHANNELS 3 Zrotation Yrotation Xrotation
			JOINT rankle
			{
				OFFSET 0.019056 -0.420046 -0.034562
				CHANNELS 3 Zrotation Yrotation Xrotation
				JOINT rtoe
				{
					OFFSET -0.034840 -0.062106 0.130323
					CHANNELS 3 Zrotation Yrotation Xrotation
					End Site
					{
						OFFSET 0.000000 0.000000 0.000000
					}
				}
			}
		}
	}
	JOINT lowerback
	{
		OFFSET 0.004439 0.124404 -0.038385
		CHANNELS 3 Zrotation Yrotation Xrotation
		JOINT upperback
		{
			OFFSET 0.004488 0.137956 0.026820
			CHANNELS 3 Zrotation Yrotation Xrotation
			JOINT chest
			{
				OFFSET -0.002265 0.056032 0.002855
				CHANNELS 3 Zrotation Yrotation Xrotation
				JOINT lowerneck
				{
					OFFSET -0.013390 0.211636 -0.033468
					CHANNELS 3 Zrotation Yrotation Xrotation
					JOINT upperneck
					{
						OFFSET 0.010113 0.088937 0.050410
						CHANNELS 3 Zrotation Yrotation Xrotation
						End Site
						{
							OFFSET 0.000000 0.000000 0.000000
						}
					}
				}
				JOINT lclavicle
				{
					OFFSET 0.071702 0.114000 -0.018898
					CHANNELS 3 Zrotation Yrotation Xrotation
					JOINT lshoulder
					{
						OFFSET 0.122921 0.045205 -0.019046
						CHANNELS 3 Zrotation Yrotation Xrotation
						JOINT lelbow
						{
							OFFSET 0.255332 -0.015649 -0.022946
							CHANNELS 3 Zrotation Yrotation Xrotation
							JOINT lwrist
							{
								OFFSET 0.265709 0.012698 -0.007375
								CHANNELS 3 Zrotation Yrotation Xrotation
								End Site
								{
									OFFSET 0.000000 0.000000 0.000000
								}
							}
						}
					}
				}
				JOINT rclavicle
				{
					OFFSET -0.082954 0.112472 -0.023707
					CHANNELS 3 Zrotation Yrotation Xrotation
					JOINT rshoulder
					{
						OFFSET -0.113228 0.046853 -0.008472
						CHANNELS 3 Zrotation Yrotation Xrotation
						JOINT relbow
						{
							OFFSET -0.260127 -0.014369 -0.031269
							CHANNELS 3 Zrotation Yrotation Xrotation
							JOINT rwrist
							{
								OFFSET -0.269108 0.006794 -0.006027
								CHANNELS 3 Zrotation Yrotation Xrotation
								End Site
								{
									OFFSET 0.000000 0.000000 0.000000
								}
							}
						}
					}
				}
			}
		}
	}
}
MOTION
Frames: 17
Frame Time: 0.033333
-0.319675 1.104991 0.996699 -1.937680 -1.210094 86.162870 -3.415439 -0.523709 2.896249 -2.766548 -7.824067 6.121681 4.969032 11.450168 -15.575599 0.000000 -0.000000 0.000000 3.330655 0.881443 -2.661554 0.374585 1.332747 18.719863 0.945586 -6.186714 -21.609279 0.000000 -0.000000 0.000000 0.269271 0.609499 11.252825 1.692001 1.126914 -1.416703 0.218456 -0.641208 4.315639 2.845629 6.559810 -0.722430 -6.249169 -1.189063 20.466698 -32.382970 7.298063 0.213562 -58.036148 -6.887124 8.476913 18.766269 -33.454726 -7.399608 4.673480 -3.614674 -9.010750 33.330021 -0.895544 0.815377 54.099489 5.532887 16.102844 -18.381575 24.495297 -10.175128 1.152571 2.785056 -4.061035 
-0.318861 1.104394 0.996788 -1.874693 -1.070832 86.254077 -3.437382 -0.576149 2.747153 -2.580851 -7.764985 6.251039 4.905480 11.566920 -15.657712 0.000000 -0.000000 0.000000 3.476545 0.978994 -2.567749 0.338600 1.505501 18.412187 1.077032 -6.281189 -21.403421 0.000000 -0.000000 0.000000 0.103232 0.541928 11.286484 1.742020 0.997001 -1.484859 0.297449 -0.790635 4.355060 3.113209 6.744901 -0.882955 -6.336259 -1.079406 20.639658 -32.322493 7.401250 0.288290 -57.854220 -6.455919 8.834931 18.107833 -33.648180 -6.064806 4.326112 -3.762018 -8.423952 33.530839 -0.782020 0.606257 53.892134 5.816389 16.280505 -18.109694 24.594688 -10.041334 1.124285 2.966042 -4.130743 
-0.318124 1.103644 0.996440 -1.775827 -0.976569 86.466424 -3.435289 -0.590866 2.440627 -2.597410 -7.658467 6.449627 5.041263 11.583641 -15.541304 0.000000 -0.000000 0.000000 3.492560 0.878079 -2.746110 0.314075 1.372883 18.317091 1.085090 -6.151026 -21.298149 0.000000 -0.000000 0.000000 0.081706 0.461084 11.137977 1.692912 0.865816 -1.449424 0.318739 -0.849310 4.442805 3.216508 6.938215 -0.968165 -6.423184 -1.019502 20.516718 -32.182051 7.525863 0.288775 -57.925507 -6.247805 8.988352 17.686693 -33.811245 -4.813306 3.968742 -3.895475 -7.871065 33.326958 -0.885056 0.480192 54.278909 6.178584 16.282367 -18.199795 24.951925 -9.863681 1.051280 3.003221 -4.286025 
-0.316833 1.102241 0.996412 -1.691941 -0.844935 86.561620 -3.381553 -0.331650 2.371889 -2.655425 -7.641242 6.546387 5.091871 11.527444 -15.770369 0.000000 -0.000000 0.000000 3.480763 0.640118 -2.796911 0.362141 1.322776 18.321243 0.990164 -6.015437 -21.307442 0.000000 -0.000000 0.000000 0.122843 0.485568 11.086434 1.686339 0.799942 -1.468504 0.300385 -0.857351 4.355672 3.307709 6.691394 -0.829807 -6.277909 -1.098544 20.618634 -32.240399 7.409706 0.423276 -58.081072 -5.960412 8.991598 17.401215 -33.531891 -4.327161 3.606558 -3.858782 -7.899506 33.224120 -0.842542 0.763707 54.320332 6.300164 16.102406 -18.334478 25.757283 -10.062620 0.955572 3.096424 -4.688676 
-0.316245 1.100859 0.996457 -1.922950 -0.768093 86.494233 -3.447777 -0.330096 2.618621 -2.465525 -7.484680 6.466297 5.080723 11.577889 -15.947689 0.000000 -0.000000 0.000000 3.664243 0.679652 -2.649249 0.136388 1.492603 18.285025 0.984671 -6.066260 -21.382303 0.000000 -0.000000 0.000000 0.170126 0.673976 11.053108 1.660697 0.958968 -1.359947 0.318763 -0.882593 4.310636 3.234694 6.480784 -0.738703 -6.265886 -1.172091 20.634742 -32.332506 7.215975 0.574323 -58.295884 -5.894726 8.952214 17.563661 -33.185993 -4.696966 3.849353 -3.765531 -7.902914 33.152948 -0.696691 0.830800 54.348708 6.242533 16.105227 -18.550207 26.090826 -10.268886 0.830702 3.224914 -4.791440 
-0.315465 1.099550 0.996691 -2.212262 -0.756761 86.456756 -3.541218 -0.317266 2.703615 -2.481465 -7.389558 6.594260 5.150382 11.825720 -16.060775 0.000000 -0.000000 0.000000 3.761019 0.846767 -2.588656 -0.019511 1.615270 18.323734 0.987692 -6.043628 -21.372773 0.000000 -0.000000 0.000000 0.026100 0.711523 11.085488 1.618562 1.079206 -1.319925 0.378855 -0.719558 4.304950 3.487855 6.431614 -0.759851 -6.225480 -1.161319 20.636748 -32.417434 7.344603 0.319304 -58.614201 -5.843806 8.948760 17.401127 -32.823769 -4.741822 3.923685 -3.757036 -7.919803 33.103010 -0.655553 0.756841 54.575306 6.625803 16.026638 -18.525924 26.122773 -10.647908 0.362638 3.310191 -4.449553 
-0.314488 1.098175 0.996623 -2.335538 -0.716214 86.500550 -3.591889 -0.306449 2.571928 -2.513518 -7.345977 6.910762 5.231043 11.918109 -16.064826 0.000000 -0.000000 0.000000 3.877549 0.934806 -2.562222 -0.206810 1.672637 18.347503 0.931599 -6.202417 -21.378557 0.000000 -0.000000 0.000000 0.046061 0.657398 11.050255 1.584215 1.152274 -1.438388 0.337175 -0.670581 4.326485 3.415654 6.315938 -0.628782 -6.156411 -1.098960 20.558424 -32.433798 7.373326 0.329294 -58.742009 -5.664317 9.044631 17.137879 -32.866604 -4.367981 3.826953 -3.651056 -7.791900 32.872059 -0.503513 0.743030 54.502813 6.539035 16.265889 -18.333237 26.548330 -10.157168 0.519235 3.341073 -4.612144 
-0.311853 1.097063 0.996531 -2.346756 -0.664445 86.342809 -3.927010 -0.457431 2.747931 -2.246976 -7.217712 7.023324 5.498412 12.229385 -16.034408 0.000000 -0.000000 0.000000 3.656140 1.246355 -2.298162 0.040475 1.482919 18.312675 1.026894 -6.418887 -21.384619 0.000000 -0.000000 0.000000 0.449869 0.490944 11.303879 1.440318 1.193602 -1.527580 0.070410 -0.618127 4.334307 3.369048 6.305957 -0.757208 -6.196031 -1.099106 20.645539 -32.492970 7.261775 0.417359 -58.815817 -5.484591 9.191364 16.990070 -33.141144 -3.917525 3.636420 -3.799900 -7.810154 32.649376 -0.349929 0.725495 54.603727 6.671988 16.328194 -18.696805 26.792532 -10.234380 0.520364 3.044930 -4.459234 
-0.310320 1.095443 0.996825 -2.673285 -0.597212 86.192726 -4.027504 -0.132458 3.072621 -2.101922 -6.922653 6.889667 5.620804 12.224941 -16.043860 0.000000 -0.000000 0.000000 3.561617 1.400695 -1.984165 0.085953 1.369717 18.234571 0.956531 -6.144379 -21.476116 0.000000 -0.000000 0.000000 0.692549 0.403153 11.385782 1.371163 1.363242 -1.489601 -0.128308 -0.476394 4.246612 3.456238 6.351139 -0.625776 -6.242466 -1.006760 20.527763 -32.585820 7.217354 0.386821 -58.737231 -5.215929 9.285058 16.643030 -33.348272 -3.621315 3.407232 -3.916985 -7.310309 32.910807 -0.290576 0.728053 54.647563 7.069206 15.884510 -18.920782 26.489723 -11.108170 -0.022761 3.330093 -3.754223 
-0.309953 1.094559 0.996987 -2.722777 -0.582408 86.335457 -3.951585 -0.245557 3.125273 -2.180067 -6.905887 6.617830 5.570545 12.229138 -15.865347 0.000000 -0.000000 0.000000 3.648004 1.515690 -2.038656 -0.015706 1.414710 18.150434 0.850400 -6.365590 -21.351040 0.000000 -0.000000 0.000000 0.360084 0.509017 11.302561 1.484851 1.386532 -1.591705 0.102763 -0.488600 4.130843 3.459162 6.214854 -0.566197 -6.241397 -1.040686 20.355133 -32.465690 7.074232 0.607639 -58.873076 -5.116305 9.460680 16.093390 -33.588501 -2.943946 2.884768 -3.967450 -7.736036 32.603823 -0.228525 0.748540 54.451390 6.930116 16.099713 -18.931527 27.034075 -10.476140 0.553428 3.217211 -4.333322 
-0.309286 1.094403 0.997061 -2.661330 -0.657449 86.616114 -4.003627 -0.255828 3.005244 -2.306548 -6.987146 6.282641 5.557867 12.292093 -15.736623 0.000000 -0.000000 0.000000 3.530103 1.698072 -2.285192 0.040574 1.452414 18.090345 0.848274 -6.645098 -21.300471 0.000000 -0.000000 0.000000 0.110153 0.382341 11.054346 1.548721 1.316034 -1.616213 0.156880 -0.505060 4.071968 3.373189 6.236218 -0.709660 -6.315269 -1.127976 20.270025 -32.428668 7.067625 0.854087 -58.750054 -5.049377 9.619696 15.684378 -34.143500 -2.329441 2.177908 -3.989163 -8.029479 32.689626 -0.113156 0.792427 54.355597 7.023967 16.208302 -19.163609 27.207593 -10.474737 0.799773 3.097623 -4.560710 
-0.309218 1.093889 0.997138 -2.566982 -0.667998 86.621875 -4.082350 -0.294457 3.170606 -2.125917 -6.949968 6.015263 5.625794 12.313165 -15.664150 0.000000 -0.000000 0.000000 3.593276 1.671435 -2.200390 -0.058035 1.545790 17.991519 0.906547 -6.748162 -21.266166 0.000000 -0.000000 0.000000 -0.017236 0.342458 11.003265 1.554487 1.145751 -1.555435 0.176039 -0.486284 4.085699 3.466042 6.327090 -0.805531 -6.315331 -0.954760 20.078884 -32.371713 7.022483 0.822626 -58.654791 -5.090336 9.706702 15.448827 -34.407048 -2.147349 2.313948 -3.941192 -8.209445 32.679241 -0.016416 0.796106 54.361463 7.098155 16.259539 -19.084972 27.486923 -10.575790 0.743480 3.062459 -4.846818 
-0.309440 1.093671 0.997115 -2.369261 -0.548170 86.598591 -3.787011 -0.272941 3.222581 -2.304206 -6.855073 6.046501 5.520569 11.888616 -15.770674 0.000000 -0.000000 0.000000 3.723325 1.458150 -1.924151 -0.108133 1.442582 17.649909 1.041995 -6.720849 -21.215116 0.000000 -0.000000 0.000000 -0.010441 0.429952 11.070692 1.588470 1.030659 -1.540166 0.189788 -0.608684 4.057372 3.469014 6.418613 -1.121790 -6.217619 -1.057231 20.209687 -32.335259 6.852267 0.847019 -58.558312 -5.172279 9.784830 15.410005 -34.740582 -2.128608 3.397161 -4.208886 -7.459268 32.798780 -0.010479 0.715613 54.163716 7.065632 16.232177 -18.902313 27.712403 -10.438135 0.606658 3.120953 -4.457155 
-0.309309 1.093704 0.997160 -2.282952 -0.542078 86.701044 -3.769600 -0.285520 3.076012 -2.340805 -6.817999 6.117843 5.614321 11.855422 -15.754087 0.000000 -0.000000 0.000000 3.621637 1.362922 -1.976026 0.036237 1.497042 17.560743 1.029188 -6.661432 -21.127544 0.000000 -0.000000 0.000000 -0.059068 0.456499 11.011318 1.573882 0.925720 -1.540815 0.169918 -0.645128 3.996259 3.418472 6.443727 -1.162837 -6.136059 -1.039725 20.132915 -32.228387 6.687824 0.922140 -58.486848 -5.176500 9.898560 15.322833 -35.050448 -1.973947 3.391296 -4.265703 -7.559200 32.808887 0.103092 0.785251 54.163706 7.002809 16.281005 -18.842058 27.847240 -10.281703 0.552246 3.091223 -4.545783 
-0.308643 1.093617 0.997234 -2.440367 -0.467822 86.797000 -3.876583 -0.157419 2.955424 -2.049465 -6.666420 6.128125 5.529681 11.831627 -15.757645 0.000000 -0.000000 0.000000 3.650697 1.254088 -1.885824 -0.072792 1.482566 17.198491 1.112802 -6.281080 -21.088641 0.000000 -0.000000 0.000000 0.210257 0.515750 10.979380 1.465911 1.039686 -1.648359 0.046366 -0.583655 4.035659 3.362610 6.341415 -1.311297 -6.189607 -1.219873 20.238649 -32.186408 6.673088 0.765062 -58.653342 -5.378851 9.939450 15.516202 -35.009690 -2.232597 3.763913 -4.280886 -7.031374 32.916670 -0.001254 0.625983 54.575057 7.110565 16.021138 -19.095261 27.384118 -10.991824 0.042132 3.504878 -3.903405 
-0.308525 1.093481 0.997571 -2.436686 -0.297733 86.839777 -3.725387 -0.160797 2.735048 -2.112946 -6.569002 6.424624 5.546354 11.916364 -15.766100 0.000000 -0.000000 0.000000 3.614393 0.979107 -1.524369 0.180600 1.541668 16.432005 1.024234 -5.935844 -20.887784 0.000000 -0.000000 0.000000 0.442003 0.651467 10.922875 1.424288 1.015002 -1.643355 -0.001762 -0.556381 3.964115 3.233889 6.319856 -1.229651 -6.080609 -1.145177 20.107553 -32.168044 6.544568 0.826771 -58.670812 -5.457338 9.948975 15.582787 -35.239203 -2.279154 3.540261 -4.348832 -7.269583 32.942720 -0.026262 0.731556 54.552045 7.048284 15.904574 -18.971303 27.285027 -10.844965 0.189907 3.504292 -4.017228 
-0.308400 1.093110 0.998264 -2.238368 -0.105058 86.837844 -3.637192 -0.369869 2.459107 -1.978764 -6.524276 7.044734 5.544388 11.941123 -16.009270 0.000000 -0.000000 0.000000 3.771159 0.860424 -0.800928 0.180521 1.654795 15.258861 1.001546 -5.925207 -20.503247 0.000000 -0.000000 0.000000 0.595264 0.697379 10.790609 1.497171 0.898926 -1.603583 0.076378 -0.557606 3.986475 3.112128 6.273299 -1.146316 -6.096453 -1.118328 20.116183 -32.279636 6.559715 0.833464 -58.590699 -5.493988 9.990937 15.572573 -35.612506 -2.062345 3.369702 -4.392589 -7.467058 32.783857 -0.119813 0.800354 54.655215 7.007302 15.875865 -18.912043 27.017820 -10.685577 0.282961 3.504917 -4.201891 
